<svg viewBox="0 0 835 362" fill="none" xmlns="http://www.w3.org/2000/svg" aria-hidden="true" class="sc-667d3333-0 lcotxv"><g><path d="M622.965 88.91v116.25h15.441v-16.129h23.309v16.129h15.442V88.91h-54.192zm19.179 80.942h-9.934v-8.36h9.934v8.36zm0-23.407h-9.934v-8.36h9.934v8.36zm0-23.9h-9.934v-8.359h9.934v8.359zm0-11.998h-9.934v-8.36h9.934v8.36zm13.08 59.305h-9.933v-8.36h9.933v8.36zm0-11.408h-9.933v-8.36h9.933v8.36zm0-11.999h-9.933v-8.36h9.933v8.36zm0-35.898h-9.933v-8.36h9.933v8.36zm12.884 47.897h-9.933v-8.36h9.933v8.36zm0-23.9h-9.933v-8.36h9.933v8.36zm0-11.999h-9.933v-8.359h9.933v8.359zM540.645 17.506v188.146h14.556v-16.031h22.031v16.031h14.556V17.507h-51.143zm13.474 142.314h-8.556v-7.081h8.556v7.081zm0-10.228h-8.556v-7.081h8.556v7.081zm0-30.686h-8.556v-7.081h8.556v7.081zm0-10.228h-8.556v-7.081h8.556v7.081zm0-20.457h-8.556V81.14h8.556v7.08zm0-10.229h-8.556v-7.08h8.556v7.08zm0-20.457h-8.556v-7.08h8.556v7.08zm11.114 112.514h-8.556v-7.081h8.556v7.081zm0-10.229h-8.556v-7.081h8.556v7.081zm0-30.685h-8.556v-7.081h8.556v7.081zm0-10.229h-8.556v-7.081h8.556v7.081zm0-20.457h-8.556v-7.08h8.556v7.08zm0-10.228h-8.556V81.14h8.556v7.08zm0-10.229h-8.556v-7.08h8.556v7.08zm0-10.228h-8.556v-7.081h8.556v7.08zm0-20.457h-8.556v-7.081h8.556v7.08zm11.212 122.742h-8.556v-7.081h8.556v7.081zm0-20.457h-8.556v-7.081h8.556v7.081zm0-10.229h-8.556v-7.081h8.556v7.081zm0-10.228h-8.556v-7.081h8.556v7.081zm0-10.229h-8.556v-7.081h8.556v7.081zm0-10.228h-8.556v-7.081h8.556v7.081zm0-10.229h-8.556v-7.08h8.556v7.08zm0-30.685h-8.556v-7.081h8.556v7.08zm0-20.457h-8.556v-7.081h8.556v7.08zm10.917 122.742h-8.458v-7.081h8.556v7.081h-.098zm0-10.229h-8.458v-7.081h8.556v7.081h-.098zm0-10.228h-8.458v-7.081h8.556v7.081h-.098zm0-10.229h-8.458v-7.081h8.556v7.081h-.098zm0-30.685h-8.458v-7.081h8.556v7.081h-.098zm0-10.229h-8.458v-7.08h8.556v7.08h-.098zm0-10.228h-8.458V81.14h8.556v7.08h-.098zm0-10.229h-8.458v-7.08h8.556v7.08h-.098zm0-10.228h-8.458v-7.081h8.556v7.08h-.098zm0-10.229h-8.458v-7.08h8.556v7.08h-.098zm0-10.228h-8.458v-7.081h8.556v7.08h-.098z" fill="#fff" fill-opacity=".5"></path><path d="M572.511 187.949h-11.704v17.703h11.704v-17.703zM594.05 179.196h-55.568v3.344h55.568v-3.344zM594.05 28.915h-55.568v3.344h55.568v-3.344z" fill="#fff"></path><path d="M594.05 28.915h-55.568v3.344h55.568v-3.344zM594.05 19.67h-55.568v-3.344l5.016-7.376h43.667l6.885 7.376v3.344z" fill="#fff"></path><path d="M608.016 93.433v25.277h-3.836V90.09l-10.425-9.147v124.611h5.311v-16.032h9.048v16.032h5.705V98.351l-5.803-4.918zm-6.393 25.08h-3.147v-17.506h3.147v17.506zm6.196 51.929h-3.147v-17.506h3.147v17.506zm0-20.162h-3.147v-17.506h3.147v17.506z" fill="#fff" fill-opacity=".5"></path><path d="M661.519 180.966h-11.802v24.588h11.802v-24.588z" fill="#fff"></path><path d="M679.419 179.097h-58.716v3.541h58.716v-3.541zM679.419 85.86h-58.716v3.541h58.716v-3.54z" fill="#fff"></path><path d="M679.419 85.86h-58.716v3.541h58.716v-3.54zM676.665 78.878h-53.306v5.507h53.306v-5.507zM663.879 74.648h-27.636V77.6h27.636v-2.95z" fill="#fff"></path><path d="M655.815 66.78h-11.507v8.36h11.507v-8.36zM700.072.492v87.926l-10.425-10.229v127.07h9.54v-14.753h11.212v14.654l13.966.099V0l-24.293.492zm11.409 168.18h-6.491v-7.966h6.491v7.966zm0-13.867h-6.491v-7.967h6.491v7.967zm0-13.868h-6.491v-7.966h6.491v7.966zm0-13.769h-6.491v-7.967h6.491v7.967zm0-13.868h-6.491v-7.966h6.491v7.966zm0-13.769h-6.491v-7.966h6.491v7.966zm0-13.867h-6.491v-7.967h6.491v7.967zm0-13.868h-6.491v-7.868h6.491v7.868zm0-13.769h-6.491v-7.966h6.491v7.966zm0-13.867h-6.491v-7.967h6.491v7.967zm0-13.77h-6.491v-7.966h6.491v7.966zm0-13.867h-6.491V8.557h6.491v7.966z" fill="#fff"></path><path d="M719.349 41.21v164.049h22.129V24.096L719.349 41.21zm17.015 127.462h-6.491v-7.966h6.491v7.966zm0-13.867h-6.491v-7.967h6.491v7.967zm0-13.868h-6.491v-7.966h6.491v7.966zm0-13.769h-6.491v-7.966h6.491v7.966zm0-13.868h-6.491v-7.966h6.491v7.966zm0-13.769h-6.491v-7.966h6.491v7.966zm0-13.867h-6.491v-7.967h6.491v7.967zm0-13.868h-6.491v-7.868h6.491v7.868zm0-13.769h-6.491v-7.966h6.491v7.966z" fill="#fff"></path><path d="M752.395 49.372h-13.081V205.26h13.081V49.372zM724.267 7.376l-9.54 13.474V205.26h9.54V7.376zM694.466 100.121h-13.08v105.138h13.08V100.121z" fill="#fff" fill-opacity=".5"></path><path d="M722.202 21.44h-5.115V205.26h5.115V21.44z" fill="#fff"></path><path d="M834.027 205.062H454.883v.983h379.144v-.983zM418.69 25.08c0-3.05-3.344-5.606-7.376-5.606h-.099v-.197c0-3.738-4.032-6.786-9.048-6.786-.787 0-1.475.196-2.164.393-1.967-5.213-8.261-9.048-15.834-9.048-9.049 0-16.425 5.507-16.425 12.392v.197c-3.147 1.377-5.409 3.835-6.098 6.59-1.672-2.263-5.016-3.837-8.753-3.837-3.639 0-6.786 1.476-8.556 3.541-.197.098-.394.197-.492.295-5.311 3.836-10.032 11.114-10.032 11.114h79.074v-.197c11.114.099 28.817.197 31.571.197 4.032.098-25.768-6-25.768-9.048zM205.957 24.49l1.082 1.081-1.377-.196s-1.574.983-4.229.983c-2.656 0-5.311-1.278-5.311-1.278l-1.967.786-.984-.983.984-.984h4.032l-.983-2.065c-.295-.59-.689-1.082-1.181-1.574l-5.212-4.622 7.081 3.246c.59.294 1.18.688 1.574 1.278l1.77 2.262c.984-.885 2.164-1.573 3.246-2.262.393-.197.688-.492.983-.787l1.77-1.77-.491 1.967c-.099.492-.394.983-.689 1.377l-2.36 2.95h.983c.394 0 .885.197 1.279.59z" fill="#fff"></path><path d="M41.219 119.792v61.076h68.255l-.295-60.781-67.96-.295zm30.095 33.734H57.25v-11.704h13.966v11.704h.098zm0-13.966H57.25v-11.704h13.966v11.704h.098zm16.425 13.966H73.675v-11.704H87.64v11.704h.098zm0-13.966H73.675v-11.704H87.64v11.704h.098z" fill="#fff" fill-opacity=".5"></path><path d="M87.64 44.848H73.281v26.948h14.36V44.848zM278.933 122.939h-25.866l-60.781-70.026h71.108l15.539 70.026zM92.46 153.329H52.824v5.705H92.46v-5.705z" fill="#fff"></path><path d="M89.706 39.734H71.314v5.212h18.392v-5.212z" fill="#fff"></path><path d="M270.869 121.562h-18.392v.688l-61.371-71.108-61.961 71.698 25.964.492.295 54.585-26.259 2.95h141.724v-59.305zm-71.698-13.573h-14.95V91.171c0-3.245 2.066-5.9 4.524-5.9h5.901c2.459 0 4.525 2.655 4.525 5.9v16.818zm40.225 45.537H225.43v-11.704h13.966v11.704zm0-13.966H225.43v-11.704h13.966v11.704z" fill="#fff" fill-opacity=".5"></path><path d="M243.822 153.329h-22.916v5.705h22.916v-5.705zM211.464 107.99h-39.635v5.704h39.635v-5.704zM206.35 128.053h-29.308v52.815h29.308v-52.815z" fill="#fff"></path><path d="M200.842 156.28a1.77 1.77 0 100-3.542 1.77 1.77 0 000 3.542zM135.832 87.434l-32.357 37.373v64.125h64.617v-64.125l-32.26-37.373zm-1.967 80.845h-13.966v-11.704h13.966v11.704zm0-14.065h-13.966v-11.703h13.966v11.703zm0-14.064h-13.966v-11.704h13.966v11.704zm16.425 28.129h-13.966v-11.704h13.966v11.704zm0-14.065h-13.966v-11.703h13.966v11.703zm0-14.064h-13.966v-11.704h13.966v11.704z" fill="#fff"></path><path d="M33.45 122.939h70.812l31.472-35.603 11.704 13.474 42.488-47.897H52.333l-18.884 70.026z" fill="#fff"></path><path d="M278.933 120.972h-24.882l-62.847-72.78-43.668 49.667-11.605-13.474-32.653 36.587H33.449a1.973 1.973 0 00-1.967 1.967c0 1.082.885 1.967 1.967 1.967h70.813c.787 0 1.377-.394 1.77-1.082l29.801-33.44 30.882 35.702c.393.492.983.688 1.475.688.492 0 .885-.196 1.279-.491.786-.689.885-1.967.196-2.754l-19.572-22.621 41.013-46.717 60.191 69.633c.295.59.983 1.082 1.77 1.082h25.866a1.973 1.973 0 001.967-1.967 1.973 1.973 0 00-1.967-1.967zM379.743 204.964H.6v.983h379.143v-.983z" fill="#fff"></path><path d="M311.881 197.686h-.295v-16.13h.295a1.973 1.973 0 001.967-1.967 1.973 1.973 0 00-1.967-1.967h-.295v-6.491c0-.098 0-.197-.099-.295l-2.458-2.361c-.197-.196-.59-.196-.787 0l-2.361 2.361c-.098.098-.098.197-.098.295v6.393h-4.819v-6.393c0-.098 0-.197-.099-.295l-2.458-2.361c-.197-.196-.59-.196-.787 0l-2.361 2.361c-.098.098-.098.197-.098.295v6.393h-4.819v-6.393c0-.098 0-.197-.098-.295l-2.459-2.361c-.197-.196-.59-.196-.787 0l-2.36 2.361c-.099.098-.099.197-.099.295v6.393h-4.819v-6.393c0-.098 0-.197-.098-.295l-2.459-2.361c-.197-.196-.59-.196-.787 0l-2.36 2.361c-.099.098-.099.197-.099.295v6.393h-4.819v-6.393c0-.098 0-.197-.098-.295l-2.459-2.361c-.197-.196-.59-.196-.787 0l-2.36 2.361c-.099.098-.099.197-.099.295v6.393h-4.819v-6.393c0-.098 0-.197-.098-.295l-2.459-2.361c-.197-.196-.59-.196-.787 0l-2.36 2.361c-.099.098-.099.197-.099.295v6.393h-4.819v-6.393c0-.098 0-.197-.098-.295l-2.459-2.361c-.197-.196-.59-.196-.787 0l-2.36 2.361c-.098.098-.098.197-.098.295v6.393h-4.82v-6.393c0-.098 0-.197-.098-.295l-2.459-2.361c-.196-.196-.59-.196-.787 0l-2.36 2.361c-.098.098-.098.197-.098.295v6.393h-4.82v-6.393c0-.098 0-.197-.098-.295l-2.459-2.361c-.196-.196-.59-.196-.787 0l-2.36 2.361c-.098.098-.098.197-.098.295v6.393h-4.819v-6.393c0-.098 0-.197-.099-.295l-2.459-2.361c-.196-.196-.59-.196-.786 0l-2.361 2.361c-.098.098-.098.197-.098.295v6.393h-4.819v-6.393c0-.098 0-.197-.099-.295l-2.459-2.361c-.196-.196-.59-.196-.786 0l-2.361 2.361c-.098.098-.098.197-.098.295v6.393h-4.819v-6.393c0-.098 0-.197-.099-.295l-2.458-2.361c-.197-.196-.591-.196-.787 0l-2.361 2.361c-.098.098-.098.197-.098.295v6.393h-5.409v-6.393c0-.098 0-.197-.099-.295l-2.458-2.361c-.197-.196-.591-.196-.787 0l-2.361 2.361c-.098.098-.098.197-.098.295v6.393h-.689a1.973 1.973 0 00-1.967 1.967c0 1.082.886 1.967 1.967 1.967h.689v16.228h-.689a1.973 1.973 0 00-1.967 1.967c0 1.082.886 1.967 1.967 1.967h.689v3.54h5.803v-3.54h4.819v3.54h5.803v-3.54h4.819v3.54h5.802v-3.54h4.82v3.54h5.802v-3.54h4.82v3.54h5.802v-3.54h4.82v3.54h5.802v-3.54h4.819v3.54h5.803v-3.54h4.819v3.54h5.803v-3.54h4.819v3.54h5.803v-3.54h4.819v3.54h5.803v-3.54h4.819v3.54h5.803v-3.54h4.819v3.54h5.803v-3.54h4.819v3.54h5.803v-3.54h.295a1.973 1.973 0 001.967-1.967c0-1.082-.295-1.967-1.377-1.967zm-128.348 0v-16.13h4.819v16.13h-4.819zm10.622 0v-16.13h4.819v16.13h-4.819zm10.72 0v-16.13h4.819v16.13h-4.819zm10.622 0v-16.13h4.819v16.13h-4.819zm10.72 0v-16.13h4.819v16.13h-4.819zm10.622 0v-16.13h4.819v16.13h-4.819zm10.72 0v-16.13h4.819v16.13h-4.819zm10.622 0v-16.13H263v16.13h-4.819zm10.72 0v-16.13h4.82v16.13h-4.82zm10.622 0v-16.13h4.82v16.13h-4.82zm10.721 0v-16.13h4.819v16.13h-4.819zm10.72 0v-16.13h4.819v16.13h-4.819z" fill="#fff"></path><path d="M478.979 147.428c-7.474-3.639-19.867-7.671-19.867-7.671h-9.736s-14.458 4.917-19.179 8.556c-.295.197 4.033 15.146 4.033 15.146l42.684.295s2.164-16.227 2.065-16.326z" fill="#FBCCA3"></path><path d="M453.998 187.555c-.098.394 0 .787.295 1.082.295.295.787.295 1.082.099.394-.197.59-.689.689-1.082M441.901 160.017c-.098-.098-.295.197-.197.295 0 .492.492.984.984 1.082.492.098 1.082-.197 1.278-.688M466.194 160.312c.295.492.786.689 1.278.59.492-.098.885-.59.885-1.082" fill="#CE914D"></path><path d="M443.475 109.76c-.394.098-.197 5.409.393 9.048.393 2.262 2.36 1.869 2.36 1.869l3.738-10.917h-6.491zM466.784 113.3c.59 1.181-.295 4.82-.984 8.459-.491 2.262-2.36 1.77-2.36 1.77l-5.803-17.211 9.147 6.982z" fill="#F6B241"></path><path d="M461.473 126.479l-14.458.197-.295 22.424 16.72-1.18-1.967-21.441z" fill="#FBCCA3"></path><path d="M448.097 129.135c1.574 3.245 4.426 8.655 14.556 9.835l-1.082-11.409-13.474 1.574z" fill="#E8B38B"></path><path d="M464.227 120.087c0 6.884-3.639 12.294-9.737 12.294-6.098 0-9.638-5.606-9.638-12.491s3.54-12.294 9.638-12.294 9.737 5.704 9.737 12.491z" fill="#FBCCA3"></path><path d="M447.507 118.513c.59-.787 3.934-.984 4.721.098l-4.721-.098zM457.047 118.808c1.082-1.18 4.623-.983 5.213-.098l-5.213.098z" fill="#F6B241"></path><path d="M449.475 121.366a.688.688 0 100-1.376.688.688 0 000 1.376zM459.703 121.366a.689.689 0 100-1.378.689.689 0 000 1.378z" fill="#004753"></path><path d="M444.851 123.922c-.786 0-1.377-.59-1.377-1.377v-1.868c0-.787.591-1.377 1.377-1.377.787 0 1.377.59 1.377 1.377v1.868c0 .689-.59 1.377-1.377 1.377zM463.735 123.922c-.787 0-1.377-.59-1.377-1.377v-1.868c0-.787.59-1.377 1.377-1.377s1.377.59 1.377 1.377v1.868c0 .689-.688 1.377-1.377 1.377z" fill="#FBCCA3"></path><path d="M457.932 122.054c.099 4.524-4.229 2.557-4.229 2.557l1.869-.787c0-.197-.197-5.016-.295-5.016.098-.098 2.557.098 2.655 3.246zM445.048 120.677s-.983.885-.295 1.672l.295-1.672zM463.932 120.578l-.099 1.869s.59.098.787-.787c.197-.885-.688-1.082-.688-1.082z" fill="#E8B38B"></path><path d="M463.735 115.267l-15.244-5.212s-3.738-1.18-3.049-5.311c.688-4.131 13.081-1.967 16.818.197 3.639 2.065.983 6.982 1.475 10.326z" fill="#F6B241"></path><path d="M453.801 126.381h3.246s-.197.787-1.672.885c-1.475.099-1.574-.885-1.574-.885z" fill="#fff"></path><path d="M447.114 138.085l-.492 2.655-6.786 2.754s3.147 7.278 15.932 7.278c12.786 0 13.475-6.589 13.475-6.589l-5.803-2.361-.885-2.557-15.441-1.18z" fill="#FBCCA3"></path><path d="M487.241 156.378c-3.246-5.508-5.508-8.36-5.508-8.36l-11.212-4.229-1.278-.492s-5.902 4.721-14.655 5.213-14.851-5.114-14.851-5.114c-8.36 2.754-15.244 6.884-15.244 6.884l-2.852 5.606 13.474 10.131 3.737 13.867 1.869 4.623-3.738 10.13 35.603.885-2.262-9.245 6-20.359 10.917-9.54z" fill="#008CB2"></path><path d="M439.737 143.396s2.656 5.803 15.638 5.016c12.982-.787 13.867-5.016 13.867-5.016" stroke="#fff" stroke-width="1.736" stroke-miterlimit="10"></path><path d="M466.98 142.019s-28.816 39.537-34.423 59.306l6.688-.197s18.884-41.308 33.538-56.257c0 0-2.655-1.967-5.803-2.852z" fill="#162D38"></path><path d="M352.303 144.969c2.459.886 5.213.295 7.77-.59 2.754-.885 5.409-1.967 7.966-3.147.984-.492 1.967-.983 2.656-1.869.787-.983 1.18-2.262 1.475-3.54.393-1.672.787-3.541-.098-5.114-.689-1.279-2.066-2.066-3.541-2.263-4.918-.786-10.917 2.951-14.654 5.803-1.574 1.18-4.131 3.049-4.82 4.918-.885 2.36.984 5.016 3.246 5.802z" fill="#000"></path><path d="M350.336 125.004c-1.377.492-2.951.984-3.737 2.262-.59.885-.689 1.967-.689 2.951-.098 1.082 0 2.163.492 3.049.688 1.377 2.36 1.967 3.836 2.065 4.032.197 7.573-2.655 11.408-4.131 1.672-.688 3.443-1.082 5.016-1.967 1.574-.885 2.951-2.459 2.951-4.229-.098-9.343-15.638-1.18-19.277 0zM378.464 139.363c0 .59-.098 1.279.099 1.869.197.492.492.984.885 1.475 1.475 1.771 3.246 3.443 5.508 4.033 2.262.59 4.917.098 6.196-1.869.983-1.475.983-3.541.393-5.213-.59-1.672-1.77-3.147-2.852-4.622-.59-.689-1.18-1.475-1.869-2.164-.59-.59-1.18-.983-1.77-1.475-2.065-1.672-4.721-5.114-6.098-1.672-.983 2.459-.393 6.885-.492 9.638z" fill="#000"></path><path d="M381.809 121.267c-1.377.098-2.754.59-3.639 1.672-1.476 1.672-1.181 4.327 0 6.196 1.081 1.967 2.852 3.344 4.327 5.016 1.082 1.278 2.065 2.557 3.246 3.737 1.18 1.18 2.655 2.066 4.327 2.262 2.951.295 5.606-2.262 6.098-5.212.393-2.951-1.18-5.901-3.541-7.672-.885-.688-1.869-1.18-2.655-1.967-2.754-2.655-3.836-4.426-8.163-4.032z" fill="#000"></path><path d="M378.76 126.578l-8.164.59-4.229 19.277 13.278 3.245-.885-23.112z" fill="#886141"></path><path d="M370.006 130.02c.295.098 0 5.704 9.147 6.786l-.394-9.343-8.753 2.557z" fill="#6B492F" opacity=".49"></path><path d="M376.497 131.397h-5.015c-3.246 0-5.803-2.655-5.803-5.803v-9.048c0-2.951 2.459-5.409 5.409-5.409h5.409c2.951 0 5.41 2.458 5.41 5.409v9.442c0 2.95-2.459 5.409-5.41 5.409z" fill="#886141"></path><path d="M368.334 119.103c.492-.688 3.049-.983 3.738 0h-3.738zM375.809 119.201c.984-.983 3.344-.885 3.836 0h-3.836zM370.4 122.054a.688.688 0 10.002-1.376.688.688 0 00-.002 1.376zM377.875 122.054a.689.689 0 100-1.378.689.689 0 000 1.378z" fill="#000"></path><path d="M365.482 123.824h-.787a.882.882 0 01-.885-.885v-2.459c0-.492.394-.885.885-.885h.787a.88.88 0 01.885.885v2.459c-.098.492-.393.885-.885.885zM382.398 123.824h-.786a.882.882 0 01-.886-.885v-2.459c0-.492.394-.885.886-.885h.786c.492 0 .886.393.886.885v2.459a.882.882 0 01-.886.885z" fill="#886141"></path><path d="M374.727 115.071c-1.672 1.278-4.032 1.573-5.999.885-.886 4.032-3.836 7.475-7.475 9.442-.984.59-2.164 1.081-3.344 1.081-.984 0-1.967-.295-2.951-.688-2.262-.885-4.622-2.36-5.507-4.623-.59-1.573-.394-3.442.492-4.819.885-1.377 2.557-2.36 4.229-2.459 1.475-.098 2.95.492 4.425.296 1.574-.197 2.853-1.082 4.033-2.066 1.672-1.475 3.049-3.344 4.721-4.819 1.672-1.475 3.934-2.656 6.097-2.36 5.311.786 4.623 7.671 1.279 10.13z" fill="#000"></path><path d="M374.432 115.464c1.672 1.279 4.033 1.574 6 .885.885 4.033 3.835 7.475 7.474 9.442.984.59 2.164 1.082 3.344 1.082.984 0 1.967-.295 2.951-.689 2.262-.885 4.622-2.36 5.507-4.622.591-1.574.394-3.442-.491-4.819-.886-1.377-2.557-2.361-4.229-2.459-1.476-.098-2.951.492-4.426.295-1.574-.197-2.852-1.082-4.033-2.065-1.672-1.476-3.049-3.344-4.72-4.82-1.672-1.475-3.935-2.655-6.098-2.36-5.213.787-4.623 7.671-1.279 10.13z" fill="#000"></path><path d="M371.482 125.496h5.507s-.098 2.557-2.655 2.36c-2.459-.196-2.852-2.36-2.852-2.36z" fill="#fff"></path><path d="M373.449 123.234l1.377-.295-.099-3.147s2.557 2.655 1.574 3.934c-1.082 1.278-2.852-.492-2.852-.492z" fill="#6B492F" opacity=".49"></path><path d="M385.251 141.232h-23.506l6.688-2.36h9.736l7.082 2.36z" fill="#2ED1FF"></path><path d="M391.84 143.888h-36.193l5.016-2.656h24.489l6.688 2.656z" fill="#fff"></path><path d="M397.84 146.445h-47.209l5.016-2.557h36.39l5.803 2.557z" fill="#2ED1FF"></path><path d="M397.545 149.002h-48.094l-.394-1.377 1.476-1.18h47.307l.393.295-.688 2.262z" fill="#fff"></path><path d="M396.758 151.559h-46.619l-.688-2.557h48.094l-.787 2.557z" fill="#2ED1FF"></path><path d="M395.971 154.116H350.73l-.591-2.557h46.619l-.787 2.557z" fill="#fff"></path><path d="M395.184 156.673h-43.668l-.688-2.557h45.143l-.787 2.557z" fill="#2ED1FF"></path><path d="M374.629 147.33a1.77 1.77 0 100-3.54 1.77 1.77 0 000 3.54z" fill="#008CB2"></path><path d="M360.663 138.872s25.178 34.521 30.095 51.831l-5.802-.197s-16.523-36.095-29.309-49.176c0 0 2.262-1.672 5.016-2.458z" fill="#162D38"></path><path d="M367.056 133.659h-.197v-.098l.197.098z" fill="#2ED1FF"></path><path d="M372.564 136.217h-5.607l-.098-2.558h.197l1.377.492c.787.295 1.573.689 2.262 1.082l1.869.984z" fill="#fff"></path><path d="M373.94 138.773h-6.884l-.099-2.557h5.606s.394.295.787.984c.492.787.59 1.573.59 1.573z" fill="#2ED1FF"></path><path d="M373.35 141.035l-5.311-1.868-.885-.295h6.786s.099.491 0 1.18c-.196.492-.59.983-.59.983z" fill="#fff"></path><path d="M380.432 135.135h.098v-.099l-.098.099z" fill="#2ED1FF"></path><path d="M376.007 137.2h4.425l.099-2.066h-.197l-1.082.394a7.47 7.47 0 00-1.77.885l-1.475.787z" fill="#fff"></path><path d="M374.924 139.265h5.508l.098-2.065h-4.426s-.295.196-.688.787a3.476 3.476 0 00-.492 1.278z" fill="#2ED1FF"></path><path d="M375.317 141.035l4.328-1.475.688-.295h-5.508s-.098.393 0 .885c.197.492.492.885.492.885z" fill="#fff"></path><path d="M351.811 148.608h-3.737s1.377-1.77 2.754-2.36h.098l.885 2.36z" fill="#2ED1FF"></path><path d="M352.795 151.264h-6.196l1.573-2.656h3.639l.984 2.656z" fill="#fff"></path><path d="M353.582 153.821h-8.065l1.082-2.557h6.196l.787 2.557z" fill="#2ED1FF"></path><path d="M354.565 156.378h-9.737l.394-1.377.295-1.18h8.163l.885 2.557z" fill="#fff"></path><path d="M393.906 147.822h4.13s-1.573-1.967-3.048-2.656h-.099l-.983 2.656z" fill="#2ED1FF"></path><path d="M392.922 150.674h6.885l-1.771-2.852h-4.13l-.984 2.852z" fill="#fff"></path><path d="M391.939 153.526h9.048l-1.18-2.852h-6.885l-.983 2.852z" fill="#2ED1FF"></path><path d="M390.955 156.378h10.819l-.394-1.573-.393-1.279h-9.048l-.984 2.852zM464.128 119.595l-1.672 3.934-1.18 5.704 2.754-5.901s.197 0 .098.295c0 .197-.196.492-.196.492l-2.656 6.098-.295.983s-3.442 1.476-7.278 1.082c-3.836-.393-5.999-1.672-5.999-1.672l-.099-.59-2.754-5.901s-.098-.098 0-.295c0-.098.197 0 .197 0l2.459 4.917-.295-5.31-2.656-4.033s-.098-.098-.098-.197c0-.196.098-.098.098-.098l2.853 3.737s4.524.099 7.671.295c3.246.197 6.688.296 6.688.296l2.36-4.131s.197 0 .099.196l-.099.099z" fill="#fff"></path><path d="M459.801 125.693s-2.164.295-5.114.393c-2.951 0-6.197-.787-6.197-.787s2.558 1.082 6 1.18c3.049 0 5.311-.786 5.311-.786zM459.407 129.332s-2.163.295-5.114.393c-2.951 0-6.196-.787-6.196-.787s2.557 1.082 5.999 1.18c3.049 0 5.311-.786 5.311-.786z" fill="#5F003C" opacity=".26"></path><path d="M365.679 121.66l2.557 2.066.59 4.622-3.639-4.721s-.098 0-.098.197.196.393.196.393l3.541 4.918.098.787s2.656 1.377 5.803 1.278c3.147-.098 5.016-.688 5.016-.688l.098-.492 2.164-4.524s.098-.098 0-.197c0-.098-.197 0-.197 0l-1.77 3.738.59-4.623 2.459-2.557s.098-.098.098-.197c0-.196-.098-.098-.098-.098l-2.655 2.36s-3.639-.196-6.197-.295c-2.655-.098-5.409-.196-5.409-.196l-3.049-2.263s-.098 0-.098.197c-.197.197 0 .295 0 .295z" fill="#fff"></path><path opacity=".26" d="M370.203 125.693s1.672.393 4.131.59c2.36.196 5.016-.295 5.016-.295s-2.164.688-4.918.59c-2.459-.099-4.229-.885-4.229-.885zM370.301 128.643s1.672.394 4.131.59c2.361.197 5.016-.295 5.016-.295s-2.164.689-4.917.59c-2.459-.098-4.23-.885-4.23-.885z" fill="#5F003C"></path><path d="M284.441 314.232l261.614-2.459-26.85-12.491-194.637-1.967-40.127 16.917z" fill="#000" opacity=".3" fill-opacity=".3"></path><path d="M323.191 305.773h-15.736c-5.704 0-10.327-4.622-10.327-10.326v-58.323c0-5.704 4.623-10.326 10.327-10.326h15.736c5.705 0 10.327 4.622 10.327 10.326v58.323c.098 5.704-4.622 10.326-10.327 10.326z" fill="#054752"></path><path d="M297.128 285.316v-42.291c0-3.934 6.983-7.179 15.638-7.179h5.213c8.654 0 15.637 3.245 15.637 7.179v44.553c-.295 0-36.881-2.163-36.488-2.262z" fill="#000" opacity=".3"></path><path d="M506.321 305.773h15.736c5.705 0 10.327-4.622 10.327-10.326v-58.323c0-5.704-4.622-10.326-10.327-10.326h-15.736c-5.704 0-10.327 4.622-10.327 10.326v58.323c0 5.704 4.623 10.326 10.327 10.326z" fill="#054752"></path><path d="M532.482 285.71v-44.652c0-4.13-6.983-7.474-15.637-7.474h-5.213c-8.655 0-15.638 3.344-15.638 7.474v46.52c.295 0 36.882-1.671 36.488-1.868z" fill="#000" opacity=".3"></path><path d="M532.581 236.141l-1.574-39.144-10.228-26.555c-.197-2.458-7.573-18.981-7.573-18.981-19.081-42.586-20.753-52.126-35.407-52.225H346.697c-15.244-.59-18.785 20.949-30.685 49.569 0 0-20.064 39.832-20.064 41.308l-1.377 48.192c-.295 9.343 7.278 27.735 16.621 27.735l205.161-1.967c9.245-.099 16.621-18.589 16.228-27.932zm-49.274-80.156H341.78c-7.967 0-17.999-3.049-13.966-13.474l9.441-24.293c3.541-8.262 3.344-12.294 17.212-12.294h118.021c13.868 0 13.474 1.475 17.31 11.704l7.77 27.44c2.065 7.671-6.295 10.917-14.261 10.917z" fill="#2ED1FF"></path><path d="M293.489 245.681c-.688 12.786 9.147 30.489 9.147 30.489 1.868 3.835 11.507 6.393 17.31 6.393l188.145.688c6.786 0 12.786-2.95 14.753-7.376 0 0 10.425-11.901 9.441-34.521-.295-5.902-4.327-10.819-12.588-10.819-8.164 0-175.655.492-211.75.59-3.934-.098-13.769 1.77-14.458 14.556z" fill="#054752"></path><path d="M315.717 253.844a5.803 5.803 0 10-.001-11.605 5.803 5.803 0 00.001 11.605zM509.763 253.352a5.409 5.409 0 100-10.818 5.409 5.409 0 000 10.818zM310.701 177.13l204.668 1.475 5.705.984 2.36 7.671s-4.327 17.212-11.409 19.08c-7.179 1.869-58.715 3.836-58.715 3.836l-3.541 2.459-69.436.492-3.245-2.459-59.798-5.213s-8.655-11.999-10.032-18.096c-1.377-6.491 3.443-10.229 3.443-10.229z" fill="#fff"></path><path d="M365.285 179.294h-16.326s-4.426 1.475-3.245 5.901c1.77 6.688 4.425 15.835 4.425 15.835s.492 4.72 9.934 5.409c9.441.688 12.097.787 12.097.787s3.246-.492 1.475-6.196c-1.672-5.606-8.36-21.736-8.36-21.736zM466.587 179.294h16.326s4.426 1.475 3.246 5.901c-1.77 6.688-4.426 15.835-4.426 15.835s-.491 4.72-9.933 5.409c-9.442.688-12.097.787-12.097.787s-3.246-.492-1.476-6.196c1.672-5.606 8.36-21.736 8.36-21.736zM446.622 187.064l-5.901 17.408c-.689 2.065-2.656 3.54-4.918 3.442l-39.734-.59a4.999 4.999 0 01-4.72-3.344l-6.196-17.408c-1.181-3.442 1.376-6.983 4.917-6.983l51.733.59c3.442.098 5.999 3.541 4.819 6.885z" fill="#054752"></path><path d="M448.687 253.057H381.71v11.606h66.977v-11.606z" fill="#fff"></path><path d="M310.996 172.016h-23.9c-4.327 0-7.769-3.541-7.769-7.77v-8.851c0-4.328 3.54-7.77 7.769-7.77h23.9c4.327 0 7.769 3.541 7.769 7.77v8.851c0 4.229-3.442 7.77-7.769 7.77zM542.809 174.475l-23.899-.689c-4.327-.098-7.671-3.737-7.573-8.064l.295-8.852c.098-4.328 3.737-7.671 8.065-7.573l23.899.688c4.328.099 7.672 3.738 7.573 8.065l-.295 8.852c-.196 4.327-3.835 7.769-8.065 7.573z" fill="#2ED1FF"></path></g></svg>