<svg width="24" height="24" viewBox="0 0 24 24" fill="none" xmlns="http://www.w3.org/2000/svg">
<path fill-rule="evenodd" clip-rule="evenodd" d="M2.93481 12C2.93481 6.99339 6.99345 2.93475 12 2.93475C17.0066 2.93475 21.0653 6.99339 21.0653 12C21.0653 17.0066 17.0066 21.0652 12 21.0652C6.99345 21.0652 2.93481 17.0066 2.93481 12ZM12 1.93475C6.44117 1.93475 1.93481 6.4411 1.93481 12C1.93481 17.5588 6.44117 22.0652 12 22.0652C17.5589 22.0652 22.0653 17.5588 22.0653 12C22.0653 6.4411 17.5589 1.93475 12 1.93475ZM12.5012 6.78241C12.5012 6.50627 12.2774 6.28241 12.0012 6.28241C11.7251 6.28241 11.5012 6.50627 11.5012 6.78241V11.9998C11.5012 12.2759 11.7251 12.4998 12.0012 12.4998H17.2186C17.4948 12.4998 17.7186 12.2759 17.7186 11.9998C17.7186 11.7237 17.4948 11.4998 17.2186 11.4998H12.5012V6.78241Z" fill="#708C91"/>
</svg>
