<svg width="24" height="24" viewBox="0 0 24 24" fill="none" xmlns="http://www.w3.org/2000/svg">
<path fill-rule="evenodd" clip-rule="evenodd" d="M4.1865 3.64604C3.29549 4.09154 2.93475 4.61449 2.93475 5.04345C2.93475 5.47241 3.29549 5.99536 4.1865 6.44086C5.0476 6.87141 6.27219 7.15214 7.65214 7.15214C9.0321 7.15214 10.2567 6.87141 11.1178 6.44086C12.0088 5.99536 12.3695 5.47241 12.3695 5.04345C12.3695 4.61449 12.0088 4.09154 11.1178 3.64604C10.2567 3.21548 9.0321 2.93475 7.65214 2.93475C6.27219 2.93475 5.0476 3.21548 4.1865 3.64604ZM3.73929 2.75161C4.76651 2.238 6.15061 1.93475 7.65214 1.93475C9.15368 1.93475 10.5378 2.238 11.565 2.75161C12.5623 3.25027 13.3695 4.03166 13.3695 5.04345C13.3695 5.05586 13.3694 5.06823 13.3692 5.08056C13.3694 5.08694 13.3695 5.09335 13.3695 5.09979V8.52151C13.3695 8.83926 13.2899 9.13429 13.1498 9.40497C14.0669 9.07741 15.1711 8.8913 16.3475 8.8913C17.849 8.8913 19.2331 9.19454 20.2603 9.70815C21.2576 10.2068 22.0648 10.9882 22.0648 12C22.0648 12.022 22.0645 12.0439 22.0637 12.0657C22.0645 12.077 22.0648 12.0883 22.0648 12.0998V15.4781C22.0648 15.5006 22.0644 15.5231 22.0637 15.5454C22.0644 15.5569 22.0648 15.5685 22.0648 15.5803V18.9566C22.0648 19.9684 21.2577 20.7498 20.2604 21.2484C19.2332 21.762 17.8491 22.0652 16.3475 22.0652C14.8458 22.0652 13.4617 21.762 12.4345 21.2484C11.4372 20.7498 10.6301 19.9684 10.6301 18.9566V18.145C9.7607 18.4273 8.74095 18.5867 7.65214 18.5867C6.1505 18.5867 4.76639 18.2835 3.73919 17.7699C2.74187 17.2713 1.93475 16.4899 1.93475 15.4781V12.0998C1.93475 12.0884 1.93514 12.077 1.93589 12.0658C1.93514 12.044 1.93475 12.0221 1.93475 12V8.6203C1.93475 8.60897 1.93513 8.59773 1.93587 8.5866C1.93513 8.56501 1.93475 8.54331 1.93475 8.52151V5.09979C1.93475 5.09335 1.93488 5.08694 1.93512 5.08056C1.93487 5.06823 1.93475 5.05586 1.93475 5.04345C1.93475 4.03166 2.74197 3.25027 3.73929 2.75161ZM21.0648 13.788C20.8227 13.9789 20.5495 14.1472 20.2603 14.2918C19.2331 14.8054 17.849 15.1087 16.3475 15.1087C14.8459 15.1087 13.4618 14.8054 12.4346 14.2918C12.1454 14.1472 11.8722 13.9789 11.6301 13.788V15.4781C11.6301 15.9071 11.9908 16.43 12.8817 16.8755C13.7428 17.306 14.9674 17.5867 16.3475 17.5867C17.7275 17.5867 18.9521 17.306 19.8132 16.8755C20.7041 16.43 21.0648 15.9071 21.0648 15.4781V13.788ZM10.6312 12.0657C10.6304 12.0439 10.6301 12.022 10.6301 12C10.6301 11.6823 10.7097 11.3873 10.8498 11.1166C9.93273 11.4441 8.8285 11.6302 7.65214 11.6302C6.1505 11.6302 4.76639 11.327 3.73919 10.8134C3.45005 10.6688 3.17689 10.5005 2.93475 10.3097V12C2.93475 12.4291 3.29547 12.952 4.1864 13.3975C5.04746 13.828 6.27205 14.1087 7.65214 14.1087C8.7912 14.1087 9.81877 13.9167 10.6301 13.6059V12.0998C10.6301 12.0883 10.6305 12.077 10.6312 12.0657ZM20.2604 17.7699C20.5496 17.6254 20.8227 17.457 21.0648 17.2662V18.9566C21.0648 19.3856 20.7041 19.9085 19.8132 20.354C18.9521 20.7845 17.7275 21.0652 16.3475 21.0652C14.9674 21.0652 13.7428 20.7845 12.8817 20.354C11.9908 19.9085 11.6301 19.3856 11.6301 18.9566V17.2662C11.8722 17.457 12.1454 17.6254 12.4345 17.7699C13.4617 18.2835 14.8458 18.5867 16.3475 18.5867C17.8491 18.5867 19.2332 18.2835 20.2604 17.7699ZM10.6301 15.4781C10.6301 15.5006 10.6305 15.5231 10.6313 15.5454C10.6305 15.5569 10.6301 15.5685 10.6301 15.5803V17.0849C9.81955 17.3953 8.79144 17.5867 7.65214 17.5867C6.27205 17.5867 5.04746 17.306 4.1864 16.8755C3.29547 16.43 2.93475 15.9071 2.93475 15.4781V13.7882C3.17689 13.979 3.45005 14.1474 3.73919 14.2919C4.76639 14.8055 6.1505 15.1087 7.65214 15.1087C8.74135 15.1087 9.76066 14.9487 10.6301 14.6661V15.4781ZM11.565 7.33529C11.8542 7.1907 12.1274 7.02235 12.3695 6.83149V8.52151C12.3695 8.95056 12.0088 9.4735 11.1179 9.91897C10.2568 10.3495 9.03224 10.6302 7.65214 10.6302C6.27205 10.6302 5.04746 10.3495 4.1864 9.91897C3.29547 9.4735 2.93475 8.95056 2.93475 8.52151V6.83149C3.17692 7.02235 3.45011 7.1907 3.73929 7.33529C4.76651 7.8489 6.15061 8.15214 7.65214 8.15214C9.15368 8.15214 10.5378 7.8489 11.565 7.33529ZM11.6301 12C11.6301 11.571 11.9908 11.0481 12.8818 10.6026C13.7429 10.172 14.9675 9.8913 16.3475 9.8913C17.7274 9.8913 18.952 10.172 19.8131 10.6026C20.7041 11.0481 21.0648 11.571 21.0648 12C21.0648 12.4289 20.7041 12.9519 19.8131 13.3974C18.952 13.828 17.7274 14.1087 16.3475 14.1087C14.9675 14.1087 13.7429 13.828 12.8818 13.3974C11.9908 12.9519 11.6301 12.4289 11.6301 12Z" fill="#708C91"/>
</svg>
